<?xml version="1.0" standalone="no"?>
<!DOCTYPE svg PUBLIC "-//W3C//DTD SVG 20010904//EN"
 "http://www.w3.org/TR/2001/REC-SVG-20010904/DTD/svg10.dtd">
<svg version="1.0" xmlns="http://www.w3.org/2000/svg"
 width="1024.000000pt" height="1024.000000pt" viewBox="0 0 1024.000000 1024.000000"
 preserveAspectRatio="xMidYMid meet">

<g transform="translate(0.000000,1024.000000) scale(0.100000,-0.100000)"
fill="#000000" stroke="none">
<path d="M0 5120 l0 -5120 5120 0 5120 0 0 5120 0 5120 -5120 0 -5120 0 0
-5120z m5017 2914 l1 -100 -156 -12 c-563 -42 -1065 -227 -1504 -554 -433
-322 -764 -696 -997 -1125 -201 -370 -329 -809 -330 -1135 l-1 -98 -60 0 -60
0 0 63 c0 122 22 305 56 474 58 288 137 521 265 776 184 367 510 779 824 1041
341 286 685 484 1060 610 274 93 676 169 860 162 l40 -1 2 -101z m393 91 c518
-61 1070 -272 1490 -569 586 -413 1005 -970 1232 -1635 88 -259 125 -460 153
-838 l5 -73 -55 0 c-37 0 -55 4 -55 13 0 6 -5 64 -11 127 -66 730 -434 1448
-1007 1963 -213 191 -352 294 -575 426 -382 224 -792 345 -1317 389 l-85 7 -3
103 -3 102 53 0 c29 0 109 -7 178 -15z m-398 -517 c3 -73 3 -136 1 -140 -2 -5
-175 -8 -383 -8 -411 0 -473 -6 -590 -55 -152 -64 -302 -198 -372 -331 -64
-122 -80 -191 -86 -361 l-4 -152 -38 -15 c-48 -19 -100 -63 -100 -85 0 -10
-12 -24 -26 -32 -51 -27 -233 -251 -324 -398 -112 -181 -215 -424 -271 -644
-23 -91 -49 -262 -49 -329 l0 -48 -95 0 -95 0 0 43 c0 61 18 209 36 295 98
472 364 929 761 1303 l70 66 6 79 c3 43 13 100 22 126 9 26 15 53 13 59 -6 17
-147 -99 -287 -235 -295 -289 -513 -614 -658 -984 -75 -193 -137 -462 -150
-654 l-6 -98 -85 0 -85 0 6 123 c20 439 219 954 525 1362 111 147 215 266 348
395 199 193 301 275 552 442 352 234 775 373 1212 398 69 4 130 8 136 8 8 2
13 -40 16 -130z m399 117 c286 -33 580 -111 804 -213 339 -154 700 -411 964
-688 482 -505 749 -1079 799 -1717 l8 -98 -86 3 -85 3 -7 90 c-47 564 -334
1167 -759 1595 -93 94 -328 300 -342 300 -3 0 4 -28 14 -62 11 -33 22 -100 26
-147 l6 -86 80 -70 c226 -197 478 -546 596 -824 109 -260 191 -588 191 -768
l0 -33 -90 0 -89 0 -5 33 c-3 17 -8 61 -11 97 -18 190 -117 514 -220 721 -110
219 -215 366 -374 524 l-81 80 0 -144 0 -143 59 -66 c142 -161 277 -401 346
-617 39 -120 79 -310 89 -417 l7 -68 -89 0 -89 0 -12 112 c-15 126 -47 268
-86 378 -36 99 -125 272 -178 346 l-42 59 -3 -257 c-2 -238 -1 -266 22 -380
13 -68 27 -153 31 -190 l7 -68 -96 0 -96 0 0 908 c0 1012 2 970 -70 1117 -93
189 -256 327 -465 396 -68 23 -83 23 -480 27 -302 2 -412 6 -417 15 -4 7 -8
69 -8 140 l0 127 53 0 c28 0 109 -7 178 -15z m571 -509 c73 -16 199 -71 238
-104 l25 -22 -37 15 c-48 19 -49 11 -2 -11 41 -20 119 -111 144 -169 40 -92
40 -112 40 -1978 l0 -1807 -1211 0 -1210 0 3 -298 3 -297 33 -67 c50 -102 146
-177 253 -197 l44 -8 -45 -7 c-25 -4 -73 -3 -108 3 -163 26 -276 124 -332 286
-20 57 -20 83 -20 2131 0 1465 3 2089 11 2126 44 211 224 377 449 411 14 3
392 5 840 5 667 1 827 -1 882 -12z m-2553 -1282 c1 -58 -2 -66 -50 -139 -125
-189 -207 -442 -225 -687 l-7 -98 -95 0 -95 0 7 98 c16 237 97 487 238 731 64
111 118 189 177 254 l36 40 6 -69 c4 -38 7 -97 8 -130z m72 -538 c11 -14 33
-27 49 -31 l30 -7 0 -174 0 -174 -100 0 c-73 0 -100 3 -100 13 0 68 81 397 98
397 2 0 13 -11 23 -24z m-1477 -620 c7 -65 8 -121 0 -113 -3 3 -6 26 -6 51 0
63 -12 66 -15 3 -2 -33 -8 -54 -18 -59 -8 -5 -15 -20 -15 -33 0 -13 -5 -27
-12 -31 -7 -4 -8 -3 -4 4 4 8 2 10 -7 6 -17 -6 -26 28 -34 144 l-6 83 55 -2
56 -2 6 -51z m360 -13 c26 -305 53 -452 124 -668 163 -494 447 -904 854 -1230
l83 -66 3 120 3 120 -53 47 c-89 80 -246 245 -311 327 -107 136 -176 247 -262
422 -155 314 -227 582 -248 918 l-5 77 93 0 93 0 7 -67 c32 -332 99 -581 230
-848 113 -230 227 -395 375 -540 l81 -80 -2 152 c-2 170 -5 162 76 226 l50 40
5 -584 5 -584 28 -80 c54 -153 158 -276 293 -347 142 -74 62 -70 1203 -68
l1024 1 77 25 c146 46 263 148 340 296 69 131 70 143 70 771 l0 558 28 -19
c69 -50 123 -105 113 -115 -7 -7 -11 -66 -11 -151 l0 -140 56 54 c228 224 409
520 515 843 60 183 109 448 109 594 l0 63 95 0 95 0 0 -67 c-1 -309 -119 -734
-288 -1039 -126 -229 -305 -450 -498 -615 l-84 -73 0 -123 c0 -68 3 -123 8
-123 9 0 162 128 232 194 156 148 312 334 418 496 229 352 378 810 399 1225
l6 125 84 0 83 0 0 -70 c0 -391 -178 -935 -429 -1311 -198 -297 -391 -499
-700 -733 l-101 -77 0 -62 c-1 -286 -225 -565 -530 -659 l-75 -23 -1019 -3
c-998 -2 -1021 -2 -1100 18 -250 63 -462 249 -536 471 -11 33 -26 107 -32 165
l-11 105 -134 100 c-323 243 -636 615 -811 964 -160 321 -263 686 -288 1023
l-7 92 86 0 85 0 6 -67z m770 -15 c23 -273 92 -512 222 -768 l63 -125 -57 -57
c-31 -32 -59 -58 -62 -58 -12 0 -112 172 -164 280 -101 214 -160 420 -191 670
-8 68 -15 128 -15 132 0 4 44 8 99 8 l98 0 7 -82z m425 -300 l-1 -383 -39 80
c-86 178 -128 347 -154 618 l-7 67 101 0 101 0 -1 -382z m3225 260 c-10 -227
-45 -384 -125 -574 -23 -55 -46 -103 -50 -108 -5 -6 -9 170 -9 397 l0 407 95
0 94 0 -5 -122z m446 87 c0 -128 -47 -383 -101 -548 -45 -137 -216 -482 -250
-503 -5 -3 -38 20 -73 52 l-63 57 45 76 c59 100 102 194 140 311 61 186 112
424 112 525 0 28 3 55 7 58 3 4 46 7 95 7 l88 0 0 -35z m-2008 -1904 c106 -51
170 -149 176 -268 9 -169 -92 -298 -260 -333 -129 -26 -270 37 -335 148 -104
177 -26 388 172 469 49 20 191 11 247 -16z"/>
<path d="M4251 7029 c-107 -21 -209 -108 -253 -217 l-23 -57 0 -1730 0 -1730
1133 -3 1132 -2 -2 1732 -3 1733 -29 60 c-17 33 -30 65 -29 72 0 7 -4 11 -11
10 -6 -1 -9 5 -8 13 2 8 0 12 -4 8 -4 -4 -24 8 -45 27 -21 19 -62 47 -91 62
l-53 28 -835 2 c-459 0 -855 -3 -879 -8z m1113 -141 c56 -14 75 -80 34 -118
-21 -19 -34 -20 -298 -20 l-277 0 -23 24 c-41 45 -26 97 34 116 36 11 486 9
530 -2z m-1096 -41 c31 -28 30 -80 -3 -112 -69 -69 -175 23 -119 103 31 45 78
49 122 9z m367 10 c55 -47 20 -147 -51 -147 -34 0 -84 51 -84 85 0 34 50 85
84 85 14 0 37 -10 51 -23z m1240 -344 c50 -27 96 -75 126 -133 23 -44 24 -54
27 -330 l4 -284 -66 64 c-322 312 -753 434 -1165 329 -206 -53 -380 -151 -538
-302 l-83 -80 0 275 c0 292 4 324 50 389 24 33 96 78 143 90 18 4 354 6 747 6
712 -2 715 -2 755 -24z m-552 -537 c261 -66 466 -207 640 -441 l67 -90 0 -217
0 -218 -35 0 c-32 0 -35 3 -35 29 0 50 -47 216 -80 282 -154 306 -418 481
-751 496 -252 12 -471 -76 -645 -259 -133 -141 -205 -280 -233 -450 -15 -97
-15 -98 -43 -98 l-28 0 0 235 c0 187 3 238 14 252 188 234 278 313 461 402
178 87 293 113 470 106 61 -3 139 -14 198 -29z m-69 -366 c187 -48 354 -178
434 -340 42 -86 72 -181 72 -232 l0 -28 -116 0 c-115 0 -147 -7 -171 -39 -19
-25 -16 -86 6 -112 18 -22 27 -24 141 -27 66 -2 120 -8 118 -12 -2 -5 -146
-152 -320 -328 l-317 -318 -326 326 c-179 180 -325 328 -325 331 0 2 51 3 113
1 109 -4 115 -3 143 21 40 35 41 99 1 133 -26 23 -36 24 -153 24 l-124 0 6 43
c33 219 172 415 363 512 129 65 309 83 455 45z m-149 -1720 c7 0 215 205 461
455 246 250 451 455 456 455 4 0 8 -292 8 -650 l0 -650 -927 0 -928 0 3 655 2
655 457 -460 c250 -253 461 -460 468 -460z"/>
<path d="M5035 6445 c-38 -37 -35 -95 6 -129 17 -15 43 -26 59 -26 16 0 42 11
59 26 25 21 31 33 31 65 0 55 -34 89 -90 89 -30 0 -47 -6 -65 -25z"/>
<path d="M4967 5439 c-99 -23 -204 -95 -269 -183 -33 -46 -36 -84 -7 -120 16
-21 29 -26 64 -26 39 0 51 6 107 55 77 68 145 95 236 95 95 0 154 -24 228 -92
56 -52 66 -58 106 -58 78 0 114 49 83 115 -20 42 -115 133 -175 168 -25 14
-72 33 -105 41 -64 17 -206 20 -268 5z"/>
<path d="M4992 5119 c-102 -51 -162 -209 -118 -313 67 -161 280 -203 398 -79
40 42 68 111 68 168 0 93 -69 195 -156 231 -51 21 -141 18 -192 -7z"/>
<path d="M5035 3765 c-34 -33 -33 -84 0 -124 14 -16 35 -33 46 -36 47 -15 109
39 109 95 0 29 -26 76 -45 84 -37 14 -86 6 -110 -19z"/>
<path d="M6373 6590 c0 -30 2 -43 4 -27 2 15 2 39 0 55 -2 15 -4 2 -4 -28z"/>
<path d="M6252 6393 c0 -106 4 -193 8 -193 7 0 2 354 -5 375 -2 6 -4 -77 -3
-182z"/>
<path d="M6272 6510 c0 -14 2 -19 5 -12 2 6 2 18 0 25 -3 6 -5 1 -5 -13z"/>
<path d="M6373 6390 c0 -25 2 -35 4 -22 2 12 2 32 0 45 -2 12 -4 2 -4 -23z"/>
<path d="M6272 6345 c0 -16 2 -22 5 -12 2 9 2 23 0 30 -3 6 -5 -1 -5 -18z"/>
<path d="M6372 6220 c0 -14 2 -19 5 -12 2 6 2 18 0 25 -3 6 -5 1 -5 -13z"/>
<path d="M6255 6124 c-3 -20 -4 -39 -1 -42 3 -3 6 4 6 16 0 12 5 22 10 22 6 0
10 9 10 20 0 34 -17 22 -25 -16z"/>
<path d="M6374 5980 c0 -58 1 -81 3 -52 2 28 2 76 0 105 -2 28 -3 5 -3 -53z"/>
<path d="M6253 5960 c0 -25 2 -35 4 -22 2 12 2 32 0 45 -2 12 -4 2 -4 -23z"/>
<path d="M6373 5730 c0 -41 2 -58 4 -37 2 20 2 54 0 75 -2 20 -4 3 -4 -38z"/>
<path d="M6374 5390 c0 -52 1 -74 3 -47 2 26 2 68 0 95 -2 26 -3 4 -3 -48z"/>
<path d="M6371 5214 c0 -11 3 -14 6 -6 3 7 2 16 -1 19 -3 4 -6 -2 -5 -13z"/>
<path d="M6272 5180 c0 -14 2 -19 5 -12 2 6 2 18 0 25 -3 6 -5 1 -5 -13z"/>
<path d="M6273 5040 c0 -47 2 -66 4 -42 2 23 2 61 0 85 -2 23 -4 4 -4 -43z"/>
<path d="M6363 5090 c0 -20 3 -26 9 -18 10 17 10 48 0 48 -5 0 -9 -14 -9 -30z"/>
<path d="M6373 5015 c0 -22 2 -30 4 -17 2 12 2 30 0 40 -3 9 -5 -1 -4 -23z"/>
<path d="M6253 4835 c0 -22 2 -30 4 -17 2 12 2 30 0 40 -3 9 -5 -1 -4 -23z"/>
<path d="M6360 4670 c0 -5 5 -10 10 -10 6 0 10 5 10 10 0 6 -4 10 -10 10 -5 0
-10 -4 -10 -10z"/>
<path d="M6253 4430 c0 -30 2 -43 4 -27 2 15 2 39 0 55 -2 15 -4 2 -4 -28z"/>
<path d="M6254 4130 c0 -63 1 -89 3 -57 2 31 2 83 0 115 -2 31 -3 5 -3 -58z"/>
<path d="M6373 4190 c0 -30 2 -43 4 -27 2 15 2 39 0 55 -2 15 -4 2 -4 -28z"/>
<path d="M6254 3710 c0 -162 2 -229 3 -147 2 81 2 213 0 295 -1 81 -3 14 -3
-148z"/>
<path d="M6274 3710 c0 -162 2 -229 3 -147 2 81 2 213 0 295 -1 81 -3 14 -3
-148z"/>
<path d="M6362 3525 c0 -16 2 -22 5 -12 2 9 2 23 0 30 -3 6 -5 -1 -5 -18z"/>
<path d="M5035 2756 c-55 -25 -105 -101 -105 -161 0 -68 74 -146 151 -160 70
-13 155 43 185 121 48 126 -103 257 -231 200z"/>
</g>
</svg>
